<?xml version="1.0" encoding="UTF-8" standalone="no"?>
<!-- Created with Inkscape (http://www.inkscape.org/) -->

<svg
   width="138.86906mm"
   height="155.30893mm"
   viewBox="0 0 138.86906 155.30893"
   version="1.1"
   id="svg1"
   inkscape:version="1.4.2 (f4327f4, 2025-05-13)"
   sodipodi:docname="logo.svg"
   inkscape:export-filename="logo.png"
   inkscape:export-xdpi="96"
   inkscape:export-ydpi="96"
   xmlns:inkscape="http://www.inkscape.org/namespaces/inkscape"
   xmlns:sodipodi="http://sodipodi.sourceforge.net/DTD/sodipodi-0.dtd"
   xmlns="http://www.w3.org/2000/svg"
   xmlns:svg="http://www.w3.org/2000/svg">
  <sodipodi:namedview
     id="namedview1"
     pagecolor="#ffffff"
     bordercolor="#000000"
     borderopacity="0.25"
     inkscape:showpageshadow="2"
     inkscape:pageopacity="0.0"
     inkscape:pagecheckerboard="0"
     inkscape:deskcolor="#d1d1d1"
     inkscape:document-units="mm"
     inkscape:zoom="0.71891835"
     inkscape:cx="262.19946"
     inkscape:cy="292.80098"
     inkscape:window-width="1920"
     inkscape:window-height="1009"
     inkscape:window-x="-8"
     inkscape:window-y="-8"
     inkscape:window-maximized="1"
     inkscape:current-layer="layer1" />
  <defs
     id="defs1" />
  <g
     inkscape:label="Capa 1"
     inkscape:groupmode="layer"
     id="layer1"
     transform="translate(-35.718749,-70.908336)">
    <g
       id="g1">
      <path
         d="m 160.42569,71.455469 c -1.44639,0.423334 -2.54,1.305278 -6.87917,5.503334 -2.82222,2.751666 -7.72583,7.549444 -10.93611,10.653888 -3.21027,3.104445 -10.01889,9.701389 -15.16944,14.640279 -5.15056,4.90361 -11.85333,11.43 -14.88722,14.46389 -4.93889,4.86833 -5.57389,5.60916 -5.57389,6.63222 0,1.72861 1.37583,2.96333 3.13972,2.82222 1.27,-0.10583 2.2225,-0.9525 13.82889,-12.27666 6.87917,-6.70278 14.64028,-14.216949 17.25083,-16.756949 2.61056,-2.54 8.07861,-7.831666 12.13556,-11.782777 4.05694,-3.951111 7.86694,-7.478889 8.46666,-7.831667 1.41111,-0.881944 3.28084,-0.846667 4.72723,0.03528 2.01083,1.234722 2.82222,4.515555 1.55222,6.385278 -0.3175,0.529166 -4.26861,4.480277 -8.71361,8.819444 -4.48028,4.339166 -15.94556,15.486941 -25.50584,24.765001 -9.8425,9.59555 -17.4625,17.25083 -17.56833,17.70944 -0.45861,1.86972 1.02306,3.70417 2.96333,3.70417 1.09362,0 1.72862,-0.45861 5.32695,-3.98639 3.66889,-3.56306 19.50861,-18.94417 34.6075,-33.58445 15.59278,-15.098882 15.34583,-14.781382 15.34583,-19.755549 0,-2.751666 -0.14111,-3.421944 -0.9525,-4.974166 -1.19944,-2.257778 -3.70417,-4.515556 -5.82083,-5.221111 -2.04611,-0.705556 -5.00945,-0.670278 -7.33778,0.03528 z"
         id="path1"
         style="fill:#000000;stroke:none;stroke-width:0.0352778" />
      <path
         d="m 43.374026,81.932969 c -3.386666,0.9525 -6.420555,4.021667 -7.337777,7.373056 -0.564445,2.081388 -0.211667,5.856111 0.705555,7.761111 0.564445,1.164166 6.632222,7.337774 23.071666,23.600834 12.276667,12.10028 23.283333,22.93055 24.482778,24.02416 2.575277,2.32834 3.527777,2.54 5.08,0.98778 1.058333,-1.05833 1.27,-2.08139 0.670277,-3.21028 -0.176389,-0.35277 -6.103055,-6.31472 -13.123333,-13.26444 -7.020277,-6.985 -17.779999,-17.60361 -23.883055,-23.63611 L 41.962915,94.597691 41.786526,92.798525 c -0.211666,-2.187223 0.740834,-3.915834 2.54,-4.797778 1.411111,-0.670278 2.257778,-0.705556 3.633611,-0.176389 0.529167,0.211667 5.503334,4.833055 11.041945,10.336389 5.538611,5.468053 16.404166,16.192503 24.165277,23.847773 14.993055,14.81667 14.887222,14.67556 15.910277,16.58056 0.635,1.19944 0.670278,2.82222 0.846667,40.04028 l 0.176387,38.80555 0.88195,1.76389 c 1.02305,2.11667 3.59833,4.7625 5.53861,5.78555 0.81139,0.38806 2.39889,0.88195 3.59833,1.05834 5.36222,0.88194 10.30111,-1.62278 12.84111,-6.49111 l 1.12889,-2.11667 0.17639,-29.10417 0.17639,-29.10416 1.02305,-2.08139 c 1.12889,-2.32833 1.79917,-2.99861 32.34972,-32.59667 9.91306,-9.56027 16.54528,-16.26305 16.68639,-16.79222 0.59973,-2.46944 -2.04611,-4.51555 -4.23333,-3.28083 -0.74083,0.38805 -20.56694,19.47333 -39.33472,37.81778 -4.79778,4.65666 -9.17222,9.17222 -9.77195,10.05416 -0.59972,0.88195 -1.44638,2.61056 -1.905,3.88056 l -0.81138,2.29305 -0.17639,28.78667 -0.17639,28.75139 -0.84667,1.27 c -1.37583,2.01083 -2.99861,2.89278 -5.18583,2.89278 -2.43417,-0.0353 -4.33917,-1.23473 -5.3975,-3.38667 -0.74083,-1.55222 -0.74083,-1.5875 -0.74083,-38.94667 0,-33.37277 -0.0706,-37.60611 -0.56445,-39.33472 -1.02305,-3.45722 -2.25778,-5.32694 -5.750277,-8.78417 -1.869722,-1.83444 -8.537222,-8.43138 -14.851944,-14.64027 C 78.440137,108.92047 68.70347,99.289636 63.059026,93.751025 55.509582,86.272136 52.334582,83.414636 50.994026,82.70908 c -2.293055,-1.128889 -5.291666,-1.446389 -7.62,-0.776111 z"
         id="path2"
         style="fill:#000000;stroke:none;stroke-width:0.0352778" />
      <path
         d="m 37.235693,114.95297 c -0.987778,0.38805 -1.516944,1.41111 -1.516944,2.8575 0,0.98778 0.493889,1.65805 3.633611,4.72722 40.040277,39.33472 40.075554,39.37 41.063332,41.38083 l 0.987778,2.01084 0.176389,29.38638 0.176389,29.42167 0.846666,0.67028 c 1.27,1.02305 3.316111,0.88194 4.233334,-0.24695 0.740833,-0.9525 0.740833,-1.12888 0.740833,-29.56277 0,-30.65639 -0.03528,-31.00917 -1.799167,-34.53695 -1.234722,-2.39889 -2.822222,-4.1275 -12.876388,-14.00527 C 67.680415,141.94047 59.143193,133.50908 53.886804,128.35852 38.752638,113.4713 39.458193,114.07102 37.235693,114.95297 Z"
         id="path3"
         style="fill:#000000;stroke:none;stroke-width:0.0352778" />
    </g>
  </g>
</svg>
