<?xml version="1.0" standalone="no"?>
<!DOCTYPE svg PUBLIC "-//W3C//DTD SVG 20010904//EN"
 "http://www.w3.org/TR/2001/REC-SVG-20010904/DTD/svg10.dtd">
<svg version="1.0" xmlns="http://www.w3.org/2000/svg"
 width="1408.000000pt" height="768.000000pt" viewBox="0 0 1408.000000 768.000000"
 preserveAspectRatio="xMidYMid meet">

<g transform="translate(0.000000,768.000000) scale(0.100000,-0.100000)"
fill="#000000" stroke="none">
<path d="M4675 6023 c-41 -12 -72 -37 -195 -156 -80 -78 -219 -214 -310 -302
-91 -88 -284 -275 -430 -415 -146 -139 -336 -324 -422 -410 -140 -138 -158
-159 -158 -188 0 -49 39 -84 89 -80 36 3 63 27 392 348 195 190 415 403 489
475 74 72 229 222 344 334 115 112 223 212 240 222 40 25 93 24 134 -1 57 -35
80 -128 44 -181 -9 -15 -121 -127 -247 -250 -127 -123 -452 -439 -723 -702
-279 -272 -495 -489 -498 -502 -13 -53 29 -105 84 -105 31 0 49 13 151 113
104 101 553 537 981 952 442 428 435 419 435 560 0 78 -4 97 -27 141 -34 64
-105 128 -165 148 -58 20 -142 19 -208 -1z"/>
<path d="M1357 5726 c-96 -27 -182 -114 -208 -209 -16 -59 -6 -166 20 -220 16
-33 188 -208 654 -669 348 -343 660 -650 694 -681 73 -66 100 -72 144 -28 30
30 36 59 19 91 -5 10 -173 179 -372 376 -199 198 -504 499 -677 670 l-314 311
-5 51 c-6 62 21 111 72 136 40 19 64 20 103 5 15 -6 156 -137 313 -293 157
-155 465 -459 685 -676 425 -420 422 -416 451 -470 18 -34 19 -80 24 -1135 l5
-1100 25 -50 c29 -60 102 -135 157 -164 23 -11 68 -25 102 -30 152 -25 292 46
364 184 l32 60 5 825 5 825 29 59 c32 66 51 85 917 924 281 271 469 461 473
476 17 70 -58 128 -120 93 -21 -11 -583 -552 -1115 -1072 -136 -132 -260 -260
-277 -285 -17 -25 -41 -74 -54 -110 l-23 -65 -5 -816 -5 -815 -24 -36 c-39
-57 -85 -82 -147 -82 -69 1 -123 35 -153 96 -21 44 -21 45 -21 1104 0 946 -2
1066 -16 1115 -29 98 -64 151 -163 249 -53 52 -242 239 -421 415 -179 176
-455 449 -615 606 -214 212 -304 293 -342 313 -65 32 -150 41 -216 22z"/>
<path d="M1183 4790 c-28 -11 -43 -40 -43 -81 0 -28 14 -47 103 -134 1135
-1115 1136 -1116 1164 -1173 l28 -57 5 -833 5 -834 24 -19 c36 -29 94 -25 120
7 21 27 21 32 21 838 0 869 -1 879 -51 979 -35 68 -80 117 -365 397 -148 145
-390 384 -539 530 -429 422 -409 405 -472 380z"/>
<path d="M12260 4407 c-112 -34 -196 -83 -276 -162 -122 -121 -174 -252 -174
-437 0 -187 48 -308 169 -428 134 -134 280 -190 490 -190 165 0 293 33 414
107 l57 34 0 245 0 244 -105 0 -105 0 0 -184 c0 -142 -3 -186 -14 -195 -26
-21 -132 -52 -202 -58 -184 -15 -366 81 -440 233 -79 162 -46 376 79 497 95
93 211 134 353 124 98 -7 164 -31 247 -90 l63 -45 68 70 c77 80 78 74 -18 143
-124 87 -223 115 -406 114 -100 0 -140 -5 -200 -22z"/>
<path d="M5870 4325 l0 -95 205 0 205 0 0 -514 0 -514 110 -1 110 -2 0 516 0
515 205 0 205 0 0 95 0 95 -520 0 -520 0 0 -95z"/>
<path d="M7100 3811 l0 -611 110 0 110 0 2 183 3 182 165 3 165 2 125 -182
125 -183 123 -3 c67 -2 122 0 122 3 0 4 -61 95 -135 202 -74 107 -135 198
-135 202 0 4 20 17 45 29 162 78 240 272 189 467 -29 113 -89 188 -195 245
-111 59 -134 62 -491 67 l-328 5 0 -611z m680 384 c76 -42 111 -94 117 -177 3
-39 1 -80 -7 -103 -18 -53 -72 -109 -133 -136 -48 -22 -65 -23 -242 -24 l-190
0 -3 238 -2 239 202 -4 203 -3 55 -30z"/>
<path d="M8200 4414 c0 -4 108 -183 240 -399 l240 -393 0 -211 0 -212 110 2
110 2 0 209 0 208 157 257 c259 427 323 533 323 538 0 3 -50 5 -110 5 l-110 0
-26 -37 c-14 -21 -93 -148 -174 -282 -82 -134 -153 -248 -158 -253 -8 -8 -129
181 -326 510 l-37 62 -120 0 c-65 0 -119 -3 -119 -6z"/>
<path d="M10338 4140 c-117 -21 -268 -84 -268 -111 0 -9 31 -68 66 -126 l14
-22 42 25 c144 82 348 86 430 7 31 -29 65 -121 55 -147 -6 -14 -30 -16 -184
-16 -186 0 -243 -9 -318 -48 -161 -84 -193 -283 -65 -411 63 -63 135 -91 251
-98 126 -8 222 19 297 82 16 14 31 25 33 25 2 0 4 -21 4 -47 l0 -48 70 -3 c39
-2 85 0 103 3 l34 6 -4 322 c-4 268 -7 331 -22 374 -32 101 -121 185 -229 219
-60 18 -241 27 -309 14z m342 -579 c0 -90 -37 -146 -125 -187 -92 -43 -225
-26 -280 36 -32 35 -28 111 8 148 41 43 75 50 245 51 l152 1 0 -49z"/>
<path d="M9375 3690 l0 -90 248 0 247 0 0 90 0 90 -247 0 -248 0 0 -90z"/>
<path d="M11130 3690 l0 -90 245 0 245 0 0 90 0 90 -245 0 -245 0 0 -90z"/>
</g>
</svg>
